<svg width="95.961243" height="95.939453" viewBox="0 0 95.9612 95.9395" fill="none" xmlns="http://www.w3.org/2000/svg" xmlns:xlink="http://www.w3.org/1999/xlink">
	<desc>
			Created with Pixso.
	</desc>
	<defs/>
	<path id="Vector" d="M47.76 95.93C37.52 95.93 27.29 95.93 17.05 95.93C6.71 95.92 0.02 89.26 0 78.95C0 58.26 0 37.57 0 16.88C0.02 6.7 6.75 0 16.95 0C37.64 0 58.32 0 79.01 0C89.22 0 95.93 6.68 95.94 16.87C95.96 37.56 95.96 58.24 95.94 78.93C95.94 89.26 89.24 95.91 78.89 95.92C68.54 95.93 58.14 95.93 47.76 95.93ZM89.56 48L89.52 48C89.52 37.55 89.56 27.1 89.52 16.64C89.49 10.32 85.49 6.55 79.17 6.33C77.05 6.27 76.65 7.04 76.66 8.97C76.74 19.49 76.69 30.02 76.71 40.55C76.71 42.42 76.49 44.19 75.23 45.69C72.82 48.57 69.22 48.71 65.66 46.08C64.07 44.91 62.53 43.05 60.83 42.87C59.13 42.68 57.56 44.8 56.01 45.99C53.63 47.83 51.16 48.73 48.3 47.28C45.44 45.83 44.72 43.33 44.73 40.32C44.79 29.86 44.73 19.41 44.79 8.96C44.79 7.03 44.39 6.33 42.28 6.33C33.95 6.46 25.61 6.37 17.28 6.38C10.23 6.38 6.4 10.2 6.4 17.22C6.4 37.69 6.4 58.16 6.4 78.63C6.4 85.69 10.2 89.51 17.24 89.51C37.71 89.51 58.18 89.51 78.65 89.51C85.81 89.51 89.56 85.71 89.56 78.49C89.56 68.33 89.56 58.16 89.56 48ZM70.12 41.4C70.22 41.07 70.3 40.73 70.34 40.4C70.34 29.6 70.34 18.8 70.39 8C70.39 6.52 69.73 6.36 68.54 6.37C63.5 6.41 58.45 6.47 53.43 6.34C51.52 6.29 51.16 7.01 51.17 8.74C51.24 18.88 51.2 29.02 51.21 39.16C51.21 39.79 50.98 40.48 51.55 41.01C51.7 40.99 51.88 41.01 51.99 40.93C53.58 39.77 55.14 38.58 56.74 37.43C59.43 35.5 62.15 35.5 64.84 37.43C66.53 38.66 68.2 39.95 70.12 41.4Z" fill="#959595" fill-opacity="1.000000" fill-rule="nonzero"/>
</svg>
