<svg width="113.320068" height="109.711914" viewBox="0 0 113.32 109.712" fill="none" xmlns="http://www.w3.org/2000/svg" xmlns:xlink="http://www.w3.org/1999/xlink">
	<desc>
			Created with Pixso.
	</desc>
	<defs/>
	<path id="Vector" d="M0.01 58.32C0.01 53.03 -0.02 47.75 0.01 42.46C0.1 34.66 5.59 29.15 13.44 29.03C20.57 28.93 27.23 30.84 33.63 33.83C40.61 37.09 46.82 41.51 52.58 46.59C55.84 49.46 57.45 49.46 60.67 46.64C69.73 38.71 79.65 32.32 91.65 29.83C95.43 29.05 99.28 28.54 103.15 29.44C108.92 30.78 113.15 35.67 113.22 41.56C113.35 52.69 113.35 63.83 113.22 74.97C113.15 81.38 108.64 86.45 102.07 87.74C97.71 88.58 93.43 89.76 89.27 91.29C80.86 94.47 73.14 99.23 66.51 105.29C59.99 111.17 53.33 111.19 46.83 105.29C37.03 96.32 24.91 90.28 11.85 87.83C4.18 86.36 0.05 81.38 0.01 73.6C0.01 68.51 0.01 63.41 0.01 58.32ZM104.55 58.49C104.55 53.3 104.59 48.11 104.55 42.93C104.51 39.31 102.94 37.75 99.33 37.72C95.17 37.73 91.05 38.52 87.18 40.05C79.29 43.05 72.54 47.79 66.27 53.29C59.87 58.89 53.44 58.91 47.01 53.29C42.45 49.19 37.41 45.64 32.02 42.72C26.55 39.81 20.78 37.87 14.51 37.73C10.39 37.64 8.76 39.19 8.75 43.25C8.72 53.34 8.72 63.43 8.75 73.52C8.75 77.17 9.81 78.52 13.32 79.18C28.23 82 42.05 88.98 53.18 99.3C55.68 101.57 57.63 101.57 60.14 99.3C71.2 89.05 84.92 82.1 99.74 79.27C103.57 78.51 104.53 77.24 104.55 73.21C104.57 68.3 104.56 63.39 104.56 58.49L104.55 58.49Z" fill="#959595" fill-opacity="1.000000" fill-rule="nonzero"/>
	<path id="Vector" d="M0.01 58.32C0.01 56.56 0.01 54.8 0 53.03C0 49.51 -0.01 45.99 0.01 42.46C0.1 34.66 5.59 29.15 13.44 29.03C20.57 28.93 27.23 30.84 33.63 33.83C40.61 37.09 46.82 41.51 52.58 46.59C55.84 49.46 57.45 49.46 60.67 46.64C69.73 38.71 79.65 32.32 91.65 29.83C95.43 29.05 99.28 28.54 103.15 29.44C108.92 30.78 113.15 35.67 113.22 41.56Q113.41 58.26 113.22 74.97C113.15 81.38 108.64 86.45 102.07 87.74C97.71 88.58 93.43 89.76 89.27 91.29C80.86 94.47 73.14 99.23 66.51 105.29C59.99 111.17 53.33 111.19 46.83 105.29C37.03 96.32 24.91 90.28 11.85 87.83C4.18 86.36 0.05 81.38 0.01 73.6L0.01 58.32ZM1.01 42.47L1.01 58.35L1.01 73.6Q1.04 79.16 3.78 82.47Q6.54 85.8 12.04 86.85Q22.18 88.75 31.06 93.18Q39.91 97.61 47.5 104.55Q52.06 108.68 56.63 108.7Q61.22 108.71 65.83 104.56Q70.86 99.95 76.56 96.43Q82.39 92.82 88.92 90.35Q92.29 89.12 95.74 88.18Q98.78 87.35 101.87 86.76Q105.15 86.12 107.54 84.3Q108.51 83.55 109.33 82.62Q110.6 81.17 111.31 79.49Q112.2 77.41 112.22 74.96Q112.41 58.26 112.22 41.57Q112.2 39.65 111.59 37.93Q110.93 36.06 109.56 34.43Q108.45 33.11 107.07 32.18Q105.23 30.95 102.93 30.41Q98.62 29.41 91.85 30.81Q76.68 33.96 61.33 47.39Q58.62 49.76 56.63 49.75Q54.64 49.74 51.92 47.34Q42.57 39.1 33.21 34.74Q22.84 29.89 13.46 30.03Q9.63 30.09 6.79 31.8Q5.57 32.53 4.52 33.57Q3.45 34.64 2.71 35.91Q1.05 38.71 1.01 42.47ZM105.55 57.49L105.55 42.93L105.55 42.92Q105.51 39.84 103.96 38.29Q102.4 36.75 99.34 36.72Q96.02 36.73 92.82 37.35Q89.76 37.95 86.81 39.12Q76.38 43.09 65.61 52.54Q61.14 56.45 56.66 56.46Q52.17 56.47 47.67 52.54Q44.37 49.58 40.78 47.02Q36.82 44.18 32.5 41.84Q23.25 36.92 14.53 36.73Q11.03 36.66 9.4 38.21Q7.76 39.78 7.75 43.25L7.75 73.52Q7.75 76.42 9.18 78.1Q10.53 79.67 13.13 80.16Q24.4 82.3 34.25 87.26Q44.09 92.23 52.5 100.04Q54.57 101.92 56.65 101.92Q58.73 101.92 60.81 100.04Q69.2 92.26 79.02 87.3Q88.77 82.38 99.93 80.25Q103.16 79.61 104.36 78.09Q105.54 76.6 105.55 73.21L105.56 57.49L105.55 57.49ZM104.55 57.49C104.55 56.09 104.55 54.7 104.55 53.3L104.55 53.3C104.56 49.84 104.57 46.38 104.55 42.93C104.51 39.31 102.94 37.75 99.33 37.72C95.17 37.73 91.05 38.52 87.18 40.05C79.29 43.05 72.54 47.79 66.27 53.29C59.87 58.89 53.44 58.91 47.01 53.29C42.45 49.19 37.41 45.64 32.02 42.72C26.55 39.81 20.78 37.87 14.51 37.73C10.39 37.64 8.76 39.19 8.75 43.25Q8.71 58.39 8.75 73.52C8.75 77.17 9.81 78.52 13.32 79.18C28.23 82 42.05 88.98 53.18 99.3C55.68 101.57 57.63 101.57 60.14 99.3C71.2 89.05 84.92 82.1 99.74 79.27C103.57 78.51 104.53 77.24 104.55 73.21C104.57 69.77 104.56 66.34 104.56 62.9C104.56 61.43 104.56 59.96 104.56 58.49L104.55 58.49C104.55 58.15 104.55 57.82 104.55 57.49Z" fill="#FFFFFF" fill-opacity="1.000000" fill-rule="evenodd"/>
	<path id="Vector" d="M74.11 17.67C74.08 19.96 73.61 22.23 72.7 24.34C71.8 26.44 70.49 28.35 68.85 29.96C67.21 31.56 65.27 32.82 63.14 33.68C61.01 34.53 58.73 34.95 56.44 34.93C54.15 34.9 51.88 34.42 49.77 33.52C47.66 32.62 45.75 31.31 44.15 29.66C42.55 28.02 41.28 26.08 40.43 23.95C39.58 21.82 39.15 19.55 39.18 17.25C39.24 12.62 41.13 8.2 44.44 4.97C47.76 1.73 52.22 -0.06 56.85 0C61.49 0.05 65.91 1.94 69.14 5.26C72.38 8.57 74.17 13.04 74.11 17.67ZM56.56 8.82C54.84 8.83 53.16 9.36 51.74 10.32C50.31 11.29 49.21 12.66 48.57 14.25C47.92 15.85 47.77 17.6 48.12 19.28C48.48 20.96 49.32 22.5 50.55 23.71C51.78 24.91 53.34 25.72 55.03 26.03C56.72 26.34 58.47 26.15 60.05 25.46C61.63 24.78 62.97 23.65 63.9 22.2C64.84 20.76 65.32 19.07 65.29 17.35C65.25 15.06 64.32 12.89 62.68 11.29C61.04 9.69 58.84 8.81 56.55 8.84L56.56 8.82Z" fill="#959595" fill-opacity="1.000000" fill-rule="nonzero"/>
	<path id="Vector" d="M74.11 17.67C74.08 19.96 73.61 22.23 72.7 24.34C71.8 26.44 70.49 28.35 68.85 29.96C67.21 31.56 65.27 32.82 63.14 33.68C61.01 34.53 58.73 34.95 56.44 34.93C54.15 34.9 51.88 34.42 49.77 33.52C47.66 32.62 45.75 31.31 44.15 29.66C42.55 28.02 41.28 26.08 40.43 23.95C39.58 21.82 39.15 19.55 39.18 17.25C39.24 12.62 41.13 8.2 44.44 4.97C47.76 1.73 52.22 -0.06 56.85 0C61.49 0.05 65.91 1.94 69.14 5.26C72.38 8.57 74.17 13.04 74.11 17.67ZM72.76 20.87Q72.43 22.44 71.78 23.94Q71.14 25.45 70.23 26.77Q69.32 28.1 68.15 29.24Q66.98 30.39 65.63 31.26Q64.29 32.14 62.77 32.75Q61.25 33.36 59.67 33.65Q58.09 33.95 56.45 33.93Q54.81 33.91 53.24 33.58Q51.67 33.24 50.17 32.6Q48.66 31.95 47.34 31.05Q46.01 30.14 44.87 28.97Q43.72 27.79 42.85 26.45Q41.97 25.1 41.36 23.58Q40.75 22.06 40.46 20.48Q40.16 18.9 40.18 17.27Q40.22 13.86 41.46 10.96Q42.7 8.06 45.14 5.68Q47.58 3.3 50.51 2.13Q53.43 0.96 56.84 1Q60.25 1.04 63.15 2.28Q66.04 3.52 68.43 5.96Q70.81 8.4 71.98 11.32Q73.15 14.25 73.11 17.66Q73.09 19.29 72.76 20.87ZM53.73 8.25Q52.39 8.67 51.17 9.5Q49.96 10.32 49.07 11.42Q48.19 12.51 47.64 13.88Q47.09 15.24 46.97 16.64Q46.84 18.05 47.14 19.49Q47.45 20.93 48.12 22.16Q48.8 23.39 49.85 24.42Q50.91 25.45 52.16 26.1Q53.4 26.74 54.85 27.01Q56.3 27.28 57.7 27.12Q59.09 26.97 60.45 26.38Q61.8 25.8 62.87 24.89Q63.94 23.98 64.74 22.75Q65.54 21.51 65.93 20.16Q66.31 18.8 66.29 17.33Q66.26 15.35 65.53 13.66Q64.8 11.97 63.38 10.57Q61.95 9.18 60.24 8.5Q59.14 8.06 57.91 7.91L57.95 7.81L56.55 7.82Q55.08 7.83 53.73 8.25ZM57.59 8.89C57.25 8.85 56.9 8.84 56.56 8.84L56.55 8.84L56.56 8.82L56.55 8.82C56.19 8.83 55.83 8.85 55.48 8.9C54.14 9.07 52.86 9.56 51.74 10.32C50.31 11.29 49.21 12.66 48.57 14.25C47.92 15.85 47.77 17.6 48.12 19.28C48.48 20.96 49.32 22.5 50.55 23.71C51.78 24.91 53.34 25.72 55.03 26.03C56.72 26.34 58.47 26.15 60.05 25.46C61.63 24.78 62.97 23.65 63.9 22.2C64.84 20.76 65.32 19.07 65.29 17.35C65.25 15.06 64.32 12.89 62.68 11.29C61.29 9.94 59.49 9.1 57.59 8.89Z" fill="#FFFFFF" fill-opacity="1.000000" fill-rule="evenodd"/>
</svg>
