<svg width="50.000000" height="50.000000" viewBox="0 0 50 50" fill="none" xmlns="http://www.w3.org/2000/svg" xmlns:xlink="http://www.w3.org/1999/xlink">
	<desc>
			Created with Pixso.
	</desc>
	<defs>
		<clipPath id="clip2_114">
			<rect id="5340267_e_email_letter_mail_icon 1" rx="0.000000" width="49.000000" height="49.000000" transform="translate(0.500000 0.500000)" fill="white" fill-opacity="0"/>
		</clipPath>
	</defs>
	<rect id="5340267_e_email_letter_mail_icon 1" rx="0.000000" width="49.000000" height="49.000000" transform="translate(0.500000 0.500000)" fill="#FFFFFF" fill-opacity="0"/>
	<g clip-path="url(#clip2_114)">
		<path id="Vector" d="M43.75 20.31C43.33 20.31 42.93 20.47 42.64 20.77C42.35 21.06 42.18 21.46 42.18 21.87L42.18 34.37C42.18 34.78 42.02 35.18 41.72 35.47C41.43 35.77 41.03 35.93 40.62 35.93L9.37 35.93C8.96 35.93 8.56 35.77 8.27 35.47C7.97 35.18 7.81 34.78 7.81 34.37L7.81 21.87C7.81 21.46 7.64 21.06 7.35 20.77C7.06 20.47 6.66 20.31 6.25 20.31C5.83 20.31 5.43 20.47 5.14 20.77C4.85 21.06 4.68 21.46 4.68 21.87L4.68 34.37C4.68 35.61 5.18 36.8 6.06 37.68C6.94 38.56 8.13 39.06 9.37 39.06L40.62 39.06C41.86 39.06 43.05 38.56 43.93 37.68C44.81 36.8 45.31 35.61 45.31 34.37L45.31 21.87C45.31 21.46 45.14 21.06 44.85 20.77C44.56 20.47 44.16 20.31 43.75 20.31Z" fill="#625791" fill-opacity="1.000000" fill-rule="nonzero"/>
		<path id="Vector" d="M24.06 29.37C24.33 29.57 24.66 29.68 25 29.68C25.33 29.68 25.66 29.57 25.93 29.37L44.39 15.53C44.67 15.31 44.88 15 44.96 14.65C45.05 14.3 45.01 13.93 44.85 13.6C44.62 13.12 44.31 12.69 43.93 12.31C43.05 11.43 41.86 10.93 40.62 10.93L9.37 10.93C8.13 10.93 6.94 11.43 6.06 12.31C5.68 12.69 5.37 13.12 5.14 13.6C4.98 13.93 4.94 14.3 5.03 14.65C5.11 15 5.32 15.31 5.6 15.53L24.06 29.37ZM9.37 14.06L40.62 14.06C40.77 14.03 40.91 14.03 41.06 14.06L25 26.17L8.93 14.06C9.08 14.03 9.23 14.03 9.37 14.06Z" fill="#625791" fill-opacity="1.000000" fill-rule="nonzero"/>
	</g>
</svg>
