<svg width="93.683334" height="93.344238" viewBox="0 0 93.6833 93.3442" fill="none" xmlns="http://www.w3.org/2000/svg" xmlns:xlink="http://www.w3.org/1999/xlink">
	<desc>
			Created with Pixso.
	</desc>
	<defs/>
	<rect id="Vector" rx="0.000000" width="92.683334" height="92.343994" transform="translate(0.500000 0.500000)" fill="#FFFFFF" fill-opacity="0"/>
	<path id="Vector" d="M93.65 56.84C93.65 62.01 93.71 67.18 93.65 72.35C93.63 77.89 91.42 83.2 87.51 87.12C83.6 91.04 78.31 93.27 72.77 93.31C70.45 93.35 68.12 93.35 65.8 93.31C60.59 93.25 57.46 90.16 57.39 84.88C57.33 80.68 57.39 76.49 57.39 72.29C57.39 68.09 55.02 65.78 50.84 65.72C48.07 65.69 45.29 65.66 42.52 65.72C38.76 65.82 36.38 68.25 36.35 71.98C36.32 76.17 36.35 80.37 36.35 84.57C36.31 90.22 33.22 93.27 27.56 93.31C25.46 93.31 23.36 93.33 21.26 93.31C9.34 93.15 0.18 84.07 0.08 72.17C-0.05 61.94 0.03 51.69 0 41.42C0 34.77 2.55 29.24 7.64 25.1C16.48 17.93 25.4 10.85 34.45 3.96C41.54 -1.43 52.4 -1.29 59.47 4.17C68.24 10.95 76.95 17.81 85.58 24.76C90.92 29.05 93.68 34.66 93.63 41.58C93.64 46.65 93.66 51.75 93.65 56.84ZM6.18 56.63C6.18 61.8 6.11 66.97 6.18 72.14C6.23 76.08 7.81 79.85 10.58 82.65C13.36 85.45 17.11 87.07 21.05 87.15C23.08 87.21 25.1 87.1 27.12 87.19C29.14 87.28 29.92 86.39 29.88 84.38C29.79 80.26 29.8 76.14 29.88 72.02C30.01 64.88 35.17 59.73 42.26 59.59C45.1 59.54 47.95 59.56 50.8 59.59C58.72 59.66 63.76 64.77 63.79 72.77C63.79 76.59 63.79 80.41 63.79 84.23C63.79 86.86 64.12 87.15 66.81 87.18C68.54 87.18 70.26 87.18 71.98 87.18C80.87 87.05 87.41 80.54 87.47 71.63C87.53 61.74 87.47 51.85 87.49 41.96C87.49 36.72 85.41 32.55 81.32 29.32C73.09 22.83 64.87 16.34 56.65 9.84C50.46 4.99 43.16 5.02 36.99 9.89C28.76 16.37 20.52 22.87 12.29 29.36C8.25 32.51 6.18 36.65 6.18 41.79C6.18 46.73 6.18 51.68 6.18 56.63Z" fill="#625791" fill-opacity="1.000000" fill-rule="nonzero"/>
</svg>
