<svg width="376.315002" height="158.114014" viewBox="0 0 376.315 158.114" fill="none" xmlns="http://www.w3.org/2000/svg" xmlns:xlink="http://www.w3.org/1999/xlink">
	<desc>
			Created with Pixso.
	</desc>
	<defs/>
	<path id="Oi Maria Júlia" d="M51.05 7.52C48.91 7.52 47.18 5.79 47.18 3.79C47.18 1.65 48.91 3.81e-5 51.05 3.81e-5C53.19 3.81e-5 54.84 1.65 54.84 3.79C54.84 5.93 53.19 7.52 51.05 7.52ZM20.14 50.85C8.34 50.85 4.76e-6 41.33 4.76e-6 27.32C4.76e-6 13.11 8.34 3.79 20.14 3.79C31.94 3.79 40.36 13.17 40.36 27.25C40.36 41.4 31.94 50.85 20.14 50.85ZM20.14 46.02C29.04 46.02 34.91 38.77 34.91 27.25C34.91 15.93 28.84 8.62 20.14 8.62C11.24 8.62 5.38 15.87 5.38 27.25C5.38 38.77 11.24 46.02 20.14 46.02ZM53.6 50.09L48.42 50.09L48.42 16.49L53.6 16.49L53.6 50.09ZM275.27 108.21L265.24 108.21L270 91.21L286.75 91.21L286.75 93.59L275.27 108.21ZM143.73 107.87C139.05 107.87 135.23 104.13 135.23 99.63C135.23 94.87 138.97 91.3 143.73 91.3C148.49 91.3 152.31 94.87 152.31 99.63C152.31 101.92 151.46 103.88 149.76 105.49C148.06 107.11 146.02 107.87 143.73 107.87ZM326.09 107.87C321.42 107.87 317.59 104.13 317.59 99.63C317.59 94.87 321.33 91.3 326.09 91.3C330.85 91.3 334.68 94.87 334.68 99.63C334.68 101.92 333.83 103.88 332.13 105.49C330.43 107.11 328.39 107.87 326.09 107.87ZM311.07 157.09L297.21 157.09L297.21 93.34L311.07 93.34L311.07 157.09ZM27.81 128.7L48.47 100.31L53.91 100.31L53.91 157.09L39.71 157.09L39.71 133.88L30.11 146.8L25.43 146.8L15.91 133.88L15.91 157.09L1.72 157.09L1.72 100.31L7.16 100.31L27.81 128.7ZM225.6 158.11C223.05 158.11 220.42 157.77 217.7 157.09L217.7 145.1L222.46 145.27C226.96 145.27 228.83 143.74 228.83 140.09L228.83 100.99L242.94 100.99L242.94 142.21C242.94 152.75 236.91 158.11 225.6 158.11ZM79.8 113.57C90.77 113.57 97.57 119.77 97.57 131.08L97.57 157.09L84.9 157.09L84.9 153.77C82.1 156.66 78.44 158.11 73.94 158.11C65.52 158.11 60.51 152.67 60.51 145.19C60.51 137.28 66.37 132.44 75.89 132.44L83.71 132.44L83.71 130.91C83.71 127.85 81.84 125.81 78.1 125.81C74.7 125.81 72.41 127.25 68.92 130.74L61.78 122.24C66.63 116.37 72.32 113.57 79.8 113.57ZM176.18 113.57C187.14 113.57 193.94 119.77 193.94 131.08L193.94 157.09L181.28 157.09L181.28 153.77C178.47 156.66 174.82 158.11 170.31 158.11C161.9 158.11 156.88 152.67 156.88 145.19C156.88 137.28 162.75 132.44 172.27 132.44L180.09 132.44L180.09 130.91C180.09 127.85 178.22 125.81 174.48 125.81C171.08 125.81 168.78 127.25 165.3 130.74L158.16 122.24C163 116.37 168.7 113.57 176.18 113.57ZM358.55 113.57C369.51 113.57 376.31 119.77 376.31 131.08L376.31 157.09L363.65 157.09L363.65 153.77C360.84 156.66 357.19 158.11 352.68 158.11C344.27 158.11 339.25 152.67 339.25 145.19C339.25 137.28 345.12 132.44 354.64 132.44L362.46 132.44L362.46 130.91C362.46 127.85 360.59 125.81 356.85 125.81C353.45 125.81 351.15 127.25 347.67 130.74L340.53 122.24C345.37 116.37 351.07 113.57 358.55 113.57ZM127.82 113.99C129.26 113.99 130.45 114.16 131.39 114.59L131.39 127.42L128.33 127.42C122.29 127.42 119.32 130.06 119.32 136.43L119.32 157.09L105.46 157.09L105.46 114.59L118.13 114.59L118.13 119.09C120.51 115.69 123.74 113.99 127.82 113.99ZM150.7 157.09L136.84 157.09L136.84 114.59L150.7 114.59L150.7 157.09ZM270.34 158.11C259.21 158.11 251.3 150.46 251.3 138.98L251.3 114.59L265.16 114.59L265.16 140.09C265.16 143.15 267.37 145.36 270.34 145.36C273.32 145.36 275.44 143.23 275.44 140.09L275.44 114.59L289.38 114.59L289.38 138.98C289.38 150.46 281.48 158.11 270.34 158.11ZM333.06 157.09L319.21 157.09L319.21 114.59L333.06 114.59L333.06 157.09ZM78.36 147.99C81.5 147.99 83.71 145.95 83.71 142.47L83.71 141.02L78.27 141.02C75.81 141.02 74.45 142.3 74.45 144.59C74.45 146.72 75.89 147.99 78.36 147.99ZM174.73 147.99C177.88 147.99 180.09 145.95 180.09 142.47L180.09 141.02L174.65 141.02C172.18 141.02 170.82 142.3 170.82 144.59C170.82 146.72 172.27 147.99 174.73 147.99ZM357.1 147.99C360.25 147.99 362.46 145.95 362.46 142.47L362.46 141.02L357.02 141.02C354.55 141.02 353.19 142.3 353.19 144.59C353.19 146.72 354.64 147.99 357.1 147.99Z" fill="#625791" fill-opacity="1.000000" fill-rule="evenodd"/>
</svg>
