<svg width="31.000000" height="41.000000" viewBox="0 0 31 41" fill="none" xmlns="http://www.w3.org/2000/svg" xmlns:xlink="http://www.w3.org/1999/xlink">
	<desc>
			Created with Pixso.
	</desc>
	<defs/>
	<path d="M27.5 14L25 14L25 9.5C25 6.98 23.99 4.56 22.21 2.78C20.43 1 18.01 0 15.5 0C12.98 0 10.56 1 8.78 2.78C7 4.56 6 6.98 6 9.5L6 14L3.5 14C2.57 14 1.68 14.36 1.02 15.02C0.36 15.68 0 16.57 0 17.5L0 37.5C0 38.42 0.36 39.31 1.02 39.97C1.68 40.63 2.57 41 3.5 41L27.5 41C28.42 41 29.31 40.63 29.97 39.97C30.63 39.31 31 38.42 31 37.5L31 17.5C31 16.57 30.63 15.68 29.97 15.02C29.31 14.36 28.42 14 27.5 14ZM8.79 10L8.79 9.5C8.79 7.72 9.5 6.01 10.76 4.76C12.01 3.5 13.72 2.8 15.5 2.8C17.27 2.8 18.98 3.5 20.23 4.76C21.49 6.01 22.2 7.72 22.2 9.5L22.2 14L8.81 14L8.79 10ZM28 38L3 38L3 17L28 17L28 38Z" fill="#625791" fill-opacity="1.000000" fill-rule="nonzero"/>
</svg>
