<svg width="261.655273" height="302.199768" viewBox="0 0 261.655 302.2" fill="none" xmlns="http://www.w3.org/2000/svg" xmlns:xlink="http://www.w3.org/1999/xlink">
	<desc>
			Created with Pixso.
	</desc>
	<defs/>
	<path d="M245.52 241.37C239.54 237.46 234.96 231.75 232.46 225.07C231.56 222.72 230.84 220.31 230.31 217.87C225.82 188.27 222.14 158.87 221.31 129.06C220.89 113.83 217.72 99.35 209.31 82.26C195.31 57.4 173.25 39.5 142.42 35.56C139.35 35.16 136.19 34.92 132.94 34.81C132.25 34.81 131.56 34.81 130.87 34.81C130.17 34.81 129.48 34.81 128.78 34.81C125.54 34.92 122.38 35.16 119.31 35.56C88.47 39.5 66.37 57.4 52.41 82.26C44.03 99.35 40.84 113.83 40.42 129.02C39.6 158.84 35.92 188.23 31.42 217.83C30.89 220.27 30.17 222.68 29.27 225.03C26.77 231.71 22.19 237.42 16.21 241.33C15.07 242.14 14.14 243.22 13.52 244.48C12.9 245.74 12.6 247.14 12.65 248.55C12.55 254.3 16.57 257.9 23.47 257.98C59.27 258.42 95.07 258.84 130.87 259.26C166.65 258.83 202.45 258.4 238.25 257.98C245.15 257.9 249.17 254.3 249.07 248.55C249.11 247.15 248.81 245.76 248.19 244.51C247.58 243.25 246.65 242.18 245.52 241.37ZM94.03 181.67C91.86 181.67 89.73 181.02 87.92 179.81C86.11 178.6 84.7 176.88 83.87 174.87C83.04 172.86 82.82 170.65 83.25 168.52C83.67 166.39 84.72 164.43 86.26 162.89C87.79 161.35 89.75 160.3 91.89 159.88C94.02 159.45 96.23 159.67 98.24 160.5C100.25 161.34 101.97 162.75 103.18 164.55C104.39 166.36 105.04 168.49 105.04 170.67C105.04 173.58 103.88 176.38 101.81 178.44C99.75 180.51 96.95 181.67 94.03 181.67ZM131.19 212.38C118.48 212.38 108.88 201.97 108.42 189.61C108.19 183.23 118.09 183.26 118.32 189.61C118.93 206.22 143.45 206.22 144.06 189.61C144.3 183.25 154.19 183.24 153.96 189.61C153.48 202.02 143.88 212.38 131.16 212.38L131.19 212.38ZM168.35 181.67C166.17 181.67 164.04 181.02 162.23 179.81C160.42 178.6 159.02 176.88 158.18 174.87C157.35 172.86 157.13 170.65 157.56 168.52C157.98 166.39 159.03 164.43 160.57 162.89C162.11 161.35 164.07 160.3 166.2 159.88C168.33 159.45 170.54 159.67 172.55 160.5C174.56 161.34 176.28 162.75 177.49 164.55C178.7 166.36 179.35 168.49 179.35 170.67C179.35 172.11 179.06 173.55 178.51 174.88C177.95 176.22 177.14 177.43 176.11 178.45C175.09 179.48 173.87 180.29 172.53 180.84C171.2 181.39 169.76 181.67 168.32 181.67L168.35 181.67Z" fill="#F8BC19" fill-opacity="1.000000" fill-rule="nonzero"/>
	<path d="M105.04 170.68C105.04 172.85 104.39 174.98 103.18 176.79C101.97 178.6 100.25 180.01 98.24 180.84C96.23 181.67 94.02 181.89 91.89 181.46C89.75 181.04 87.79 179.99 86.26 178.45C84.72 176.92 83.67 174.96 83.25 172.82C82.82 170.69 83.04 168.48 83.87 166.47C84.7 164.46 86.11 162.74 87.92 161.53C89.73 160.32 91.86 159.67 94.03 159.67C96.95 159.67 99.75 160.83 101.81 162.9C103.88 164.96 105.04 167.76 105.04 170.68Z" fill="#625791" fill-opacity="1.000000" fill-rule="nonzero"/>
	<path d="M179.31 170.68C179.31 172.85 178.66 174.98 177.45 176.79C176.24 178.6 174.52 180.01 172.51 180.84C170.5 181.67 168.29 181.89 166.16 181.46C164.03 181.04 162.07 179.99 160.53 178.45C158.99 176.92 157.94 174.96 157.52 172.82C157.09 170.69 157.31 168.48 158.14 166.47C158.98 164.46 160.39 162.74 162.19 161.53C164 160.32 166.13 159.67 168.31 159.67C171.22 159.67 174.02 160.83 176.08 162.9C178.15 164.96 179.31 167.76 179.31 170.68Z" fill="#625791" fill-opacity="1.000000" fill-rule="nonzero"/>
	<path d="M153.92 189.61C153.48 201.98 143.92 212.38 131.16 212.38C118.39 212.38 108.85 202.02 108.39 189.61C108.16 183.23 118.06 183.26 118.29 189.61C118.9 206.22 143.42 206.22 144.03 189.61C144.27 183.25 154.16 183.24 153.92 189.61Z" fill="#625791" fill-opacity="1.000000" fill-rule="nonzero"/>
	<path d="M131.57 290.31C132.39 290.29 133.22 290.24 134.05 290.13C133.23 290.2 132.39 290.28 131.57 290.31ZM130.92 273.39L134.05 273.39L130.92 273.39ZM130.92 22.01C131.92 22.01 133.03 22.01 134.1 22.09L134.1 22.01C133.03 22.01 131.92 22.01 130.88 22.01L130.92 22.01ZM130.92 0.07C131.97 0.14 133.01 0.26 134.03 0.44L134.03 0.01C132.98 -0.02 131.93 0 130.89 0.07L130.92 0.07Z" fill="#000000" fill-opacity="1.000000" fill-rule="nonzero"/>
	<path d="M252.27 231.02C245.84 227.69 244.27 222.7 242.91 216.69C236.48 187.76 234.41 158.35 233.91 128.85C233.12 79.27 201.01 38.59 158.52 26.18C158.52 25.8 158.46 25.48 158.42 25.18C157.82 20.62 156.12 16.27 153.48 12.5C150.84 8.73 147.32 5.66 143.24 3.54C140.36 2.02 137.25 0.97 134.03 0.44C132.99 0.26 131.93 0.14 130.88 0.07C129.82 0.14 128.76 0.26 127.72 0.44C124.5 0.98 121.4 2.02 118.53 3.54C114.42 5.66 110.9 8.74 108.24 12.51C105.59 16.29 103.89 20.65 103.3 25.22C103.3 25.49 103.23 25.81 103.2 26.22C60.68 38.6 28.57 79.28 27.79 128.86C27.33 158.36 25.26 187.77 18.79 216.7C17.44 222.7 15.86 227.7 9.43 231.03C1.36 235.21 -1.67 245.89 0.86 254.86C2.06 259.18 4.59 263.03 8.1 265.83C11.61 268.63 15.92 270.25 20.4 270.46C28.78 270.87 37.21 270.94 45.6 270.76L95.82 271.37C95.82 271.67 95.9 271.92 95.93 272.14C97.74 283.76 103.79 292.87 112.94 297.81L113.08 297.89C118.34 300.59 124.16 302.07 130.08 302.2L131.5 302.2C137.42 302.07 143.24 300.59 148.5 297.89L148.64 297.81C157.8 292.87 163.84 283.76 165.65 272.14C165.65 271.92 165.72 271.67 165.76 271.37L215.98 270.76C224.37 270.94 232.8 270.87 241.18 270.46C245.66 270.25 249.97 268.63 253.48 265.83C256.99 263.03 259.52 259.18 260.72 254.86C263.37 245.89 260.34 235.21 252.27 231.02ZM124.04 14.01C126.16 12.9 128.49 12.22 130.88 12.01C133.26 12.23 135.58 12.91 137.71 14.01C141.61 16.02 144.58 19.48 145.98 23.64L140.21 22.51C138.21 22.29 136.12 22.14 134.08 22.05C133.02 22.05 131.96 21.97 130.91 21.97C129.86 21.97 128.78 21.97 127.73 22.05C125.73 22.14 123.64 22.29 121.6 22.51L115.83 23.64C117.21 19.49 120.15 16.04 124.04 14.01ZM143.2 287.29C140.33 288.75 137.23 289.7 134.05 290.09C133.22 290.2 132.39 290.26 131.57 290.26L130.17 290.26C129.35 290.26 128.52 290.2 127.7 290.09C124.51 289.7 121.41 288.75 118.55 287.29C113.5 284.54 109.92 279.57 108.29 273.1C114.95 273.21 121.42 273.28 127.7 273.32L130.82 273.32L130.92 273.32L134.05 273.32C140.33 273.27 146.8 273.2 153.46 273.1C151.83 279.6 148.25 284.57 143.2 287.34L143.2 287.29ZM238.26 258.01C202.47 258.46 166.68 258.88 130.88 259.29C95.07 258.87 59.28 258.44 23.48 258.01C16.58 257.94 12.56 254.34 12.66 248.59C12.61 247.18 12.91 245.78 13.53 244.52C14.15 243.26 15.08 242.18 16.22 241.37C22.2 237.46 26.78 231.75 29.28 225.07C30.18 222.72 30.9 220.31 31.43 217.87C35.92 188.27 39.6 158.87 40.43 129.06C40.85 113.83 44.03 99.35 52.43 82.26C66.43 57.4 88.49 39.5 119.33 35.56C122.4 35.16 125.56 34.92 128.81 34.81C129.5 34.81 130.19 34.81 130.89 34.81C131.59 34.81 132.27 34.81 132.96 34.81C136.21 34.92 139.37 35.16 142.44 35.56C173.27 39.5 195.37 57.4 209.33 82.26C217.74 99.35 220.91 113.83 221.33 129.06C222.15 158.88 225.83 188.27 230.33 217.87C230.86 220.31 231.58 222.72 232.48 225.07C234.98 231.75 239.56 237.46 245.54 241.37C246.68 242.18 247.61 243.26 248.23 244.52C248.85 245.78 249.15 247.18 249.1 248.59C249.18 254.34 245.16 257.94 238.26 258.01Z" fill="#625791" fill-opacity="1.000000" fill-rule="nonzero"/>
	<path d="M145.98 23.68L140.21 22.55C138.21 22.33 136.12 22.18 134.08 22.09C133.02 22.09 131.96 22.01 130.91 22.01C129.86 22.01 128.78 22.01 127.73 22.09C125.73 22.18 123.64 22.33 121.6 22.55L115.83 23.68C117.2 19.51 120.14 16.04 124.04 14.01C126.16 12.9 128.49 12.23 130.88 12.01C133.26 12.23 135.58 12.91 137.71 14.01C141.62 16.03 144.59 19.5 145.98 23.68Z" fill="#F8BC19" fill-opacity="1.000000" fill-rule="nonzero"/>
	<path d="M153.46 273.15C151.83 279.6 148.25 284.57 143.2 287.34C140.33 288.79 137.23 289.74 134.05 290.13C133.23 290.24 132.39 290.32 131.57 290.35L130.17 290.35C129.35 290.34 128.52 290.28 127.7 290.17C124.51 289.78 121.41 288.83 118.55 287.38C113.5 284.62 109.92 279.65 108.29 273.19C114.95 273.29 121.42 273.36 127.7 273.41L130.82 273.41L130.92 273.41L134.05 273.41C140.33 273.32 146.8 273.24 153.46 273.15Z" fill="#F39B03" fill-opacity="1.000000" fill-rule="nonzero"/>
</svg>
